<?xml version="1.0" encoding="utf-8"?>
<!-- Generated by Mocodo 4.3.2 -->
<svg width="629" height="516" viewBox="0 0 629 516" xmlns="http://www.w3.org/2000/svg">
<rect x="0" y="0" width="629" height="516" fill="#ffffff" stroke="none" stroke-width="0"/>

<!-- Association PREFERE -->
<g>
	<line x1="296" y1="102" x2="166" y2="102" stroke="#d6604d" stroke-width="2"/>
	<line x1="59" y1="102" x2="166" y2="102" stroke="#d6604d" stroke-width="2"/>
	<g>
		<path d="M187 77 a14 14 90 0 1 14 14 V102 h-70 V91 a14 14 90 0 1 14 -14" fill="#f4a582" stroke="#f4a582" stroke-width="0"/>
		<path d="M201 102 v11 a14 14 90 0 1 -14 14 H145 a14 14 90 0 1 -14 -14 V102 H70" fill="#fddbc7" stroke="#fddbc7" stroke-width="0"/>
		<rect x="131" y="77" width="70" height="50" fill="none" rx="14" stroke="#d6604d" stroke-width="2"/>
		<line x1="131" y1="102" x2="201" y2="102" stroke="#d6604d" stroke-width="1"/>
		<text x="139" y="94.75" fill="#000000" font-family="Verdana" font-size="12">PREFERE</text>
	</g>
	<text x="206" y="94" fill="#4d4d4d" font-family="Verdana" font-size="12">0,N</text>
	<text x="104" y="119" fill="#4d4d4d" font-family="Verdana" font-size="12">0,N</text>
</g>

<!-- Association DETIENT -->
<g>
	<line x1="296" y1="102" x2="430" y2="102" stroke="#d6604d" stroke-width="2"/>
	<line x1="564" y1="245" x2="430" y2="102" stroke="#d6604d" stroke-width="2"/>
	<g>
		<path d="M450 77 a14 14 90 0 1 14 14 V102 h-68 V91 a14 14 90 0 1 14 -14" fill="#f4a582" stroke="#f4a582" stroke-width="0"/>
		<path d="M464 102 v11 a14 14 90 0 1 -14 14 H410 a14 14 90 0 1 -14 -14 V102 H68" fill="#fddbc7" stroke="#fddbc7" stroke-width="0"/>
		<rect x="396" y="77" width="68" height="50" fill="none" rx="14" stroke="#d6604d" stroke-width="2"/>
		<line x1="396" y1="102" x2="464" y2="102" stroke="#d6604d" stroke-width="1"/>
		<text x="403" y="94.75" fill="#000000" font-family="Verdana" font-size="12">DETIENT</text>
	</g>
	<text x="364" y="94" fill="#4d4d4d" font-family="Verdana" font-size="12">0,N</text>
	<text x="491" y="205.1" fill="#4d4d4d" font-family="Verdana" font-size="12">1,1</text>
</g>

<!-- Association REPERTORIER -->
<g>
	<line x1="59" y1="102" x2="59" y2="245" stroke="#d6604d" stroke-width="2"/>
	<line x1="296" y1="414" x2="59" y2="245" stroke="#d6604d" stroke-width="2"/>
	<g>
		<path d="M95 220 a14 14 90 0 1 14 14 V245 h-100 V234 a14 14 90 0 1 14 -14" fill="#f4a582" stroke="#f4a582" stroke-width="0"/>
		<path d="M109 245 v11 a14 14 90 0 1 -14 14 H23 a14 14 90 0 1 -14 -14 V245 H100" fill="#fddbc7" stroke="#fddbc7" stroke-width="0"/>
		<rect x="9" y="220" width="100" height="50" fill="none" rx="14" stroke="#d6604d" stroke-width="2"/>
		<line x1="9" y1="245" x2="109" y2="245" stroke="#d6604d" stroke-width="1"/>
		<text x="16" y="237.75" fill="#000000" font-family="Verdana" font-size="12">REPERTORIER</text>
	</g>
	<text x="64" y="153" fill="#4d4d4d" font-family="Verdana" font-size="12">0,N</text>
	<text x="213" y="385.65" fill="#4d4d4d" font-family="Verdana" font-size="12">0,N</text>
</g>

<!-- Association POST -->
<g>
	<line x1="296" y1="102" x2="166" y2="245" stroke="#d6604d" stroke-width="2"/>
	<line x1="296" y1="414" x2="166" y2="245" stroke="#d6604d" stroke-width="2"/>
	<g>
		<path d="M176 220 a14 14 90 0 1 14 14 V245 h-48 V234 a14 14 90 0 1 14 -14" fill="#f4a582" stroke="#f4a582" stroke-width="0"/>
		<path d="M190 245 v11 a14 14 90 0 1 -14 14 H156 a14 14 90 0 1 -14 -14 V245 H48" fill="#fddbc7" stroke="#fddbc7" stroke-width="0"/>
		<rect x="142" y="220" width="48" height="50" fill="none" rx="14" stroke="#d6604d" stroke-width="2"/>
		<line x1="142" y1="245" x2="190" y2="245" stroke="#d6604d" stroke-width="1"/>
		<text x="150" y="237.75" fill="#000000" font-family="Verdana" font-size="12">POST</text>
	</g>
	<text x="206" y="169.9" fill="#4d4d4d" font-family="Verdana" font-size="12">0,N</text>
	<text x="214" y="352.42" fill="#4d4d4d" font-family="Verdana" font-size="12">1,1</text>
</g>

<!-- Association COMMENTE -->
<g>
	<line x1="296" y1="102" x2="296" y2="245" stroke="#d6604d" stroke-width="2"/>
	<line x1="296" y1="414" x2="296" y2="245" stroke="#d6604d" stroke-width="2"/>
	<g>
		<path d="M325 220 a14 14 90 0 1 14 14 V245 h-86 V234 a14 14 90 0 1 14 -14" fill="#f4a582" stroke="#f4a582" stroke-width="0"/>
		<path d="M339 245 v11 a14 14 90 0 1 -14 14 H267 a14 14 90 0 1 -14 -14 V245 H86" fill="#fddbc7" stroke="#fddbc7" stroke-width="0"/>
		<rect x="253" y="220" width="86" height="50" fill="none" rx="14" stroke="#d6604d" stroke-width="2"/>
		<line x1="253" y1="245" x2="339" y2="245" stroke="#d6604d" stroke-width="1"/>
		<text x="261" y="237.75" fill="#000000" font-family="Verdana" font-size="12">COMMENTE</text>
		<text x="260" y="262.8" fill="#000000" font-family="Verdana" font-size="12">texte</text>
	</g>
	<text x="301" y="212" fill="#4d4d4d" font-family="Verdana" font-size="12">0,N</text>
	<text x="301" y="313" fill="#4d4d4d" font-family="Verdana" font-size="12">0,N</text>
</g>

<!-- Association LIKE -->
<g>
	<line x1="296" y1="102" x2="430" y2="245" stroke="#d6604d" stroke-width="2"/>
	<line x1="296" y1="414" x2="430" y2="245" stroke="#d6604d" stroke-width="2"/>
	<g>
		<path d="M438 220 a14 14 90 0 1 14 14 V245 h-44 V234 a14 14 90 0 1 14 -14" fill="#f4a582" stroke="#f4a582" stroke-width="0"/>
		<path d="M452 245 v11 a14 14 90 0 1 -14 14 H422 a14 14 90 0 1 -14 -14 V245 H44" fill="#fddbc7" stroke="#fddbc7" stroke-width="0"/>
		<rect x="408" y="220" width="44" height="50" fill="none" rx="14" stroke="#d6604d" stroke-width="2"/>
		<line x1="408" y1="245" x2="452" y2="245" stroke="#d6604d" stroke-width="1"/>
		<text x="416" y="237.75" fill="#000000" font-family="Verdana" font-size="12">LIKE</text>
		<text x="415" y="262.8" fill="#000000" font-family="Verdana" font-size="12">date</text>
	</g>
	<text x="364" y="167.98" fill="#4d4d4d" font-family="Verdana" font-size="12">0,N</text>
	<text x="357" y="354.45" fill="#4d4d4d" font-family="Verdana" font-size="12">0,N</text>
</g>

<!-- Association SON_LABEL -->
<g>
	<line x1="296" y1="414" x2="166" y2="414" stroke="#d6604d" stroke-width="2"/>
	<line x1="59" y1="414" x2="166" y2="414" stroke="#d6604d" stroke-width="2"/>
	<g>
		<path d="M194 389 a14 14 90 0 1 14 14 V414 h-84 V403 a14 14 90 0 1 14 -14" fill="#f4a582" stroke="#f4a582" stroke-width="0"/>
		<path d="M208 414 v11 a14 14 90 0 1 -14 14 H138 a14 14 90 0 1 -14 -14 V414 H84" fill="#fddbc7" stroke="#fddbc7" stroke-width="0"/>
		<rect x="124" y="389" width="84" height="50" fill="none" rx="14" stroke="#d6604d" stroke-width="2"/>
		<line x1="124" y1="414" x2="208" y2="414" stroke="#d6604d" stroke-width="1"/>
		<text x="132" y="406.75" fill="#000000" font-family="Verdana" font-size="12">SON LABEL</text>
	</g>
	<text x="213" y="431" fill="#4d4d4d" font-family="Verdana" font-size="12">0,N</text>
	<text x="91" y="431" fill="#4d4d4d" font-family="Verdana" font-size="12">0,N</text>
</g>

<!-- Association APPARTIENT -->
<g>
	<line x1="564" y1="245" x2="430" y2="414" stroke="#d6604d" stroke-width="2"/>
	<line x1="296" y1="414" x2="430" y2="414" stroke="#d6604d" stroke-width="2"/>
	<g>
		<path d="M462 389 a14 14 90 0 1 14 14 V414 h-92 V403 a14 14 90 0 1 14 -14" fill="#f4a582" stroke="#f4a582" stroke-width="0"/>
		<path d="M476 414 v11 a14 14 90 0 1 -14 14 H398 a14 14 90 0 1 -14 -14 V414 H92" fill="#fddbc7" stroke="#fddbc7" stroke-width="0"/>
		<rect x="384" y="389" width="92" height="50" fill="none" rx="14" stroke="#d6604d" stroke-width="2"/>
		<line x1="384" y1="414" x2="476" y2="414" stroke="#d6604d" stroke-width="1"/>
		<text x="392" y="406.75" fill="#000000" font-family="Verdana" font-size="12">APPARTIENT</text>
	</g>
	<text x="516.3" y="321" fill="#4d4d4d" font-family="Verdana" font-size="12">0,N</text>
	<text x="357" y="431" fill="#4d4d4d" font-family="Verdana" font-size="12">0,N</text>
</g>

<!-- Entity CATEGORIE -->
<g>
	<g>
		<rect x="19" y="68" width="80" height="25" fill="#bababa" stroke="none" stroke-width="0" opacity="1"/>
		<rect x="19" y="93" width="80" height="43" fill="#e0e0e0" stroke="none" stroke-width="0" opacity="1"/>
		<rect x="19" y="68" width="80" height="68" fill="none" stroke="#878787" stroke-width="2" opacity="1"/>
		<line x1="19" y1="93" x2="99" y2="93" stroke="#878787" stroke-width="1"/>
	</g>
	<text x="30" y="85.75" fill="#000000" font-family="Verdana" font-size="12">Categorie</text>
	<text x="24" y="110.8" fill="#000000" font-family="Verdana" font-size="12">idCategorie</text>
	<line x1="24" y1="113" x2="94" y2="113" stroke="#000000" stroke-width="1"/>
	<text x="24" y="127.8" fill="#000000" font-family="Verdana" font-size="12">nom</text>
</g>

<!-- Entity UTILISATEUR -->
<g>
	<g>
		<rect x="233" y="9" width="126" height="25" fill="#bababa" stroke="none" stroke-width="0" opacity="1"/>
		<rect x="233" y="34" width="126" height="161" fill="#e0e0e0" stroke="none" stroke-width="0" opacity="1"/>
		<rect x="233" y="9" width="126" height="186" fill="none" stroke="#878787" stroke-width="2" opacity="1"/>
		<line x1="233" y1="34" x2="359" y2="34" stroke="#878787" stroke-width="1"/>
	</g>
	<text x="265" y="26.75" fill="#000000" font-family="Verdana" font-size="12">Utilisateur</text>
	<text x="238" y="51.8" fill="#000000" font-family="Verdana" font-size="12">idUtilisateur</text>
	<line x1="238" y1="54" x2="311" y2="54" stroke="#000000" stroke-width="1"/>
	<text x="238" y="68.8" fill="#000000" font-family="Verdana" font-size="12">identifiant</text>
	<text x="238" y="85.8" fill="#000000" font-family="Verdana" font-size="12">mdp</text>
	<text x="238" y="102.8" fill="#000000" font-family="Verdana" font-size="12">nom</text>
	<text x="238" y="119.8" fill="#000000" font-family="Verdana" font-size="12">prenom</text>
	<text x="238" y="136.8" fill="#000000" font-family="Verdana" font-size="12">date_naissance</text>
	<text x="238" y="153.8" fill="#000000" font-family="Verdana" font-size="12">email</text>
	<text x="238" y="170.8" fill="#000000" font-family="Verdana" font-size="12">pays</text>
	<text x="238" y="187.8" fill="#000000" font-family="Verdana" font-size="12">abonne_newsletter</text>
</g>

<!-- Entity ALBUM -->
<g>
	<g>
		<rect x="517" y="186" width="94" height="25" fill="#bababa" stroke="none" stroke-width="0" opacity="1"/>
		<rect x="517" y="211" width="94" height="93" fill="#e0e0e0" stroke="none" stroke-width="0" opacity="1"/>
		<rect x="517" y="186" width="94" height="118" fill="none" stroke="#878787" stroke-width="2" opacity="1"/>
		<line x1="517" y1="211" x2="611" y2="211" stroke="#878787" stroke-width="1"/>
	</g>
	<text x="545" y="203.75" fill="#000000" font-family="Verdana" font-size="12">Album</text>
	<text x="522" y="228.8" fill="#000000" font-family="Verdana" font-size="12">idAlbum</text>
	<line x1="522" y1="231" x2="572" y2="231" stroke="#000000" stroke-width="1"/>
	<text x="522" y="245.8" fill="#000000" font-family="Verdana" font-size="12">titre</text>
	<text x="522" y="262.8" fill="#000000" font-family="Verdana" font-size="12">description</text>
	<text x="522" y="279.8" fill="#000000" font-family="Verdana" font-size="12">date_creation</text>
	<text x="522" y="296.8" fill="#000000" font-family="Verdana" font-size="12">visibilite</text>
</g>

<!-- Entity LABEL -->
<g>
	<g>
		<rect x="32" y="380" width="54" height="25" fill="#bababa" stroke="none" stroke-width="0" opacity="1"/>
		<rect x="32" y="405" width="54" height="43" fill="#e0e0e0" stroke="none" stroke-width="0" opacity="1"/>
		<rect x="32" y="380" width="54" height="68" fill="none" stroke="#878787" stroke-width="2" opacity="1"/>
		<line x1="32" y1="405" x2="86" y2="405" stroke="#878787" stroke-width="1"/>
	</g>
	<text x="43" y="397.75" fill="#000000" font-family="Verdana" font-size="12">Label</text>
	<text x="37" y="422.8" fill="#000000" font-family="Verdana" font-size="12">idLabel</text>
	<line x1="37" y1="425" x2="81" y2="425" stroke="#000000" stroke-width="1"/>
	<text x="37" y="439.8" fill="#000000" font-family="Verdana" font-size="12">nom</text>
</g>

<!-- Entity IMAGE -->
<g>
	<g>
		<rect x="240" y="321" width="112" height="25" fill="#bababa" stroke="none" stroke-width="0" opacity="1"/>
		<rect x="240" y="346" width="112" height="161" fill="#e0e0e0" stroke="none" stroke-width="0" opacity="1"/>
		<rect x="240" y="321" width="112" height="186" fill="none" stroke="#878787" stroke-width="2" opacity="1"/>
		<line x1="240" y1="346" x2="352" y2="346" stroke="#878787" stroke-width="1"/>
	</g>
	<text x="276" y="338.75" fill="#000000" font-family="Verdana" font-size="12">Image</text>
	<text x="245" y="363.8" fill="#000000" font-family="Verdana" font-size="12">idImage</text>
	<line x1="245" y1="366" x2="295" y2="366" stroke="#000000" stroke-width="1"/>
	<text x="245" y="380.8" fill="#000000" font-family="Verdana" font-size="12">titre</text>
	<text x="245" y="397.8" fill="#000000" font-family="Verdana" font-size="12">description</text>
	<text x="245" y="414.8" fill="#000000" font-family="Verdana" font-size="12">date_publication</text>
	<text x="245" y="431.8" fill="#000000" font-family="Verdana" font-size="12">format</text>
	<text x="245" y="448.8" fill="#000000" font-family="Verdana" font-size="12">taille</text>
	<text x="245" y="465.8" fill="#000000" font-family="Verdana" font-size="12">visibilite</text>
	<text x="245" y="482.8" fill="#000000" font-family="Verdana" font-size="12">pays_origine</text>
	<text x="245" y="499.8" fill="#000000" font-family="Verdana" font-size="12">telechargeable</text>
</g>

<!-- Entity IMAGEARCHIVE -->
<g>
	<g>
		<rect x="508" y="329" width="112" height="25" fill="#bababa" stroke="none" stroke-width="0" opacity="1"/>
		<rect x="508" y="354" width="112" height="145" fill="#e0e0e0" stroke="none" stroke-width="0" opacity="1"/>
		<rect x="508" y="329" width="112" height="170" fill="none" stroke="#878787" stroke-width="2" opacity="1"/>
		<line x1="508" y1="354" x2="620" y2="354" stroke="#878787" stroke-width="1"/>
	</g>
	<text x="522" y="346.75" fill="#000000" font-family="Verdana" font-size="12">ImageArchive</text>
	<text x="513" y="371.8" fill="#000000" font-family="Verdana" font-size="12">idImage</text>
	<line x1="513" y1="374" x2="563" y2="374" stroke="#000000" stroke-width="1"/>
	<text x="513" y="388.8" fill="#000000" font-family="Verdana" font-size="12">titre</text>
	<text x="513" y="405.8" fill="#000000" font-family="Verdana" font-size="12">description</text>
	<text x="513" y="422.8" fill="#000000" font-family="Verdana" font-size="12">date_publication</text>
	<text x="513" y="439.8" fill="#000000" font-family="Verdana" font-size="12">format</text>
	<text x="513" y="456.8" fill="#000000" font-family="Verdana" font-size="12">taille</text>
	<text x="513" y="473.8" fill="#000000" font-family="Verdana" font-size="12">pays_origine</text>
	<text x="513" y="490.8" fill="#000000" font-family="Verdana" font-size="12">telechargeable</text>
</g>
</svg>